<?xml version="1.0" encoding="utf-8" ?>
<svg xmlns="http://www.w3.org/2000/svg" xmlns:xlink="http://www.w3.org/1999/xlink" width="1160" height="1160">
	<path fill="#3A6BA8" transform="scale(1.13281 1.13281)" d="M0 -0L1024 0L1024 1024L-0 1024L0 -0Z"/>
	<path fill="#B68424" transform="scale(1.13281 1.13281)" d="M538.072 289.418C542.393 289.723 546.813 291.443 551.25 291.827C558.947 292.494 568.256 291.417 575.68 289.266C578.72 288.385 581.559 286.858 584.649 286.248L585.101 286.164C576.789 295.908 565.716 304.315 555.468 311.947C550.105 315.94 544.255 320.516 538.087 323.137L538.072 289.418Z"/>
	<path fill="#C1912E" transform="scale(1.13281 1.13281)" d="M306.877 91.7634L304.801 90.6534L304.75 90.0624C319.576 84.9998 334.939 84.0167 349.3 90.9798C356.457 94.4502 360.094 100.194 364.423 106.523L359.879 125.088L352.066 124.955C352.419 124.375 352.55 124.368 352.564 123.772C352.598 122.303 351.587 120.385 351.05 119C349.166 114.145 347.217 109.923 343.921 105.861C334.532 94.2917 320.579 93.1887 306.877 91.7634Z"/>
	<path fill="#B68424" transform="scale(1.13281 1.13281)" d="M306.877 91.7634C320.579 93.1887 334.532 94.2917 343.921 105.861C347.217 109.923 349.166 114.145 351.05 119C351.587 120.385 352.598 122.303 352.564 123.772C352.55 124.368 352.419 124.375 352.066 124.955L316.227 124.906C316.393 124.066 316.455 123.491 316.469 122.652C316.673 110.902 315.342 100.509 306.877 91.7634Z"/>
	<path fill="#FDE2AA" transform="scale(1.13281 1.13281)" d="M493.052 687.504L515.172 687.531L515.081 731.035L492.95 731.033L474.942 731.054L474.961 711.066L475.149 687.967L492.966 687.836L493.052 687.504Z"/>
	<path fill="#FBD193" transform="scale(1.13281 1.13281)" d="M474.961 711.066L475.149 687.967L492.966 687.836L492.95 731.033L474.942 731.054L474.961 711.066Z"/>
	<path fill="#599440" transform="scale(1.13281 1.13281)" d="M475.934 554.952L505.334 605.868L511.844 617.624C513.447 620.53 515.346 623.083 515.315 626.5L515.271 635.253L515.172 687.531L493.052 687.504L475.197 687.51C474.644 685.313 474.943 682.619 474.942 680.331L474.94 665.442L475.321 594.916L475.442 568.703C475.464 564.245 475.004 559.289 475.934 554.952Z"/>
	<path fill="#387837" transform="scale(1.13281 1.13281)" d="M475.372 635.175L475.947 635.235L493.207 635.473L493.052 687.504L475.197 687.51C476.156 682.524 475.434 676.235 475.432 671.125L475.372 635.175Z"/>
	<path fill="#FEFDFD" transform="scale(1.13281 1.13281)" d="M843.194 797.316L843.003 740.093L852.002 740.154L851.997 728.657L861.504 728.906L861.48 719.089L869.26 719.019C870.03 716.901 869.781 713.852 869.886 711.573L891.416 711.663L891.437 718.753L899.507 719.155L899.496 729.632L908.624 728.655L908.797 740.531L918.664 740.272C919.667 742.015 918.961 789.754 918.888 795.68C914.567 790.196 910.486 784.771 907.151 778.606L894.582 799.054L880.7 776.96L866.482 798.655L855.711 778.633L847.598 790.549C846.119 792.712 844.297 794.943 843.194 797.316Z"/>
	<path fill="#ED8221" transform="scale(1.13281 1.13281)" d="M843.194 797.316C844.297 794.943 846.119 792.712 847.598 790.549L855.711 778.633L866.482 798.655L880.7 776.96L894.582 799.054L907.151 778.606C910.486 784.771 914.567 790.196 918.888 795.68L919.058 839.904L907.153 845.874C907.612 847.888 908.358 850.134 908.402 852.195C904.286 855.096 899.992 857.675 895.401 859.761L895.486 870.205C892.086 869.947 886.551 870.257 883.517 868.896C881.631 864.83 875.186 860.458 871.913 857.365C867.227 852.938 837.261 824.928 836.541 821.439C837.512 819.455 837.213 815.854 837.328 813.614C839.141 812.932 841.118 812.572 842.686 811.39L843.491 810.759L843.322 799.323L843.194 797.316Z"/>
	<path fill="#D6621A" transform="scale(1.13281 1.13281)" d="M843.322 799.323C844.823 799.731 845.193 799.84 845.905 801.25L849.228 810.044L843.491 810.759L843.322 799.323Z"/>
	<path fill="#D6621A" transform="scale(1.13281 1.13281)" d="M613.949 870.965C611.387 867.276 608.819 863.286 608.519 858.68C608.453 857.661 608.499 857.115 607.885 856.25L605.893 855.873C604.51 855.504 603.665 854.769 603.003 853.528C601.506 850.721 603.103 846.391 603.951 843.549L600.803 841.25C598.683 839.383 597.181 837.368 597.059 834.5C598.324 832.452 601.861 831.349 604.015 830.341C602.576 826.891 601.66 824.855 602.076 821L603.25 820.188C605.526 820.262 607.53 820.682 609.733 821.207C610.819 818.632 609.552 814.983 611.426 812.75C613.392 812.541 615.214 813.057 617.119 813.48L629.696 768.258L634.469 752C635.387 748.779 635.988 745.16 637.262 742.081C638.864 738.209 642.875 734.609 645.348 731.133C646.711 729.217 648.034 726.146 649.827 724.697C650.467 724.18 651.875 724.741 652.666 724.897C653.326 726.714 654.113 728.249 655.137 729.887C656.646 729.151 655.356 729.879 656.36 729.093C657.246 728.399 658.4 728.297 659.478 728.094C660.019 729.722 659.539 730.975 659.596 732.601C658.562 734.294 657.723 735.871 657.228 737.804C654.953 746.7 654.044 756.201 652.439 765.255L648.898 784.398C647.57 790.773 645.686 798.65 645.941 805.148C647.432 806.923 649.607 809.019 650.377 811.195C651.09 813.209 651.084 815.756 651.253 817.875L652.153 829.698L655.84 886.518L656.045 898.959C656.072 901.374 655.879 903.96 656.493 906.303L656.527 915.523L643.998 915.947L643.319 911.425C641.524 901.904 631.853 892.307 624.255 886.957C622.691 885.02 621.019 880.854 619.25 879.477C618.775 879.108 617.372 878.822 616.75 878.605C614.767 876.851 615.242 873.827 614.212 871.531L613.949 870.965Z"/>
	<path fill="#FEFDFD" transform="scale(1.13281 1.13281)" d="M598.306 674.43C601.091 672.03 620.056 672.445 624.75 672.441L625.276 673L624.952 674.75C627.606 675.354 630.535 675.099 633.25 675.089C633.451 676.21 633.26 676.098 632.673 677C634.506 678.127 638.323 677.386 640.665 677.891C641.866 678.15 643.148 678.132 644.374 678.173C644.253 679.027 644.088 679.495 643.75 680.269C645.325 681.637 648.674 681.48 650.75 681.459L651.757 682.25L651.626 683.5C652.751 683.917 652.166 683.816 653.219 683.82C654.782 683.824 656.519 684.603 658 685.109L658.354 685.859L657.987 686.75L664.842 688.25L664.874 688.81C664.95 689.545 665.133 689.912 665.491 690.537C667.253 691.532 668.366 691.645 670.374 691.654L670.862 692.267C672.413 694.194 673.417 695.333 675.998 695.548L677.976 695.612C678.495 696.37 678.613 696.897 678.75 697.8L681.858 698.68C684.062 699.336 685.161 700.888 687 702.047C689.294 703.493 691.722 704.418 694.02 705.983C694.868 706.56 694.503 706.383 695.571 706.539L706.009 701.502C707.314 701 707.949 700.326 708.938 699.376C710.954 697.437 713.016 698.227 715.043 696.993C716.438 696.143 715.641 694.257 716.813 694.175C717.125 694.153 717.438 694.132 717.75 694.14L719.242 694.318C720.632 694.48 721.173 694.433 722.376 693.75L722.668 692.931C723.043 691.994 723.247 691.713 724 691.106L724.514 691.173C726.828 691.424 728.398 690.952 730.566 690.25C730.932 689.411 730.646 688.071 731.207 687.848C732.839 687.199 737.999 687.883 738.566 686.5L738.75 685.04C740.737 684.337 744.793 684.876 745.856 683.25C746.055 682.946 746.157 682.466 746.25 682.113C748.686 680.912 750.408 682.042 752.75 680.501L752.647 679.116C754.581 678.03 757.288 678.185 759.485 677.898C759.524 677.041 759.494 676.77 759.25 675.994C761.081 674.676 767.614 675.575 770.236 675.616L799.482 675.517L796.283 681.75L796.75 682.397C797.829 681.91 798.657 681.624 799.487 680.749L808.396 680.453C803.549 683.432 798.588 686.637 793.084 688.234L795.24 693.795L792.75 696.61C791.369 695.578 790.316 694.073 789.232 692.737L789.149 701.633C786.329 700.866 782.995 699.615 780.081 700.133C779.274 701.404 779.39 702.908 779.322 704.366L778.5 704.927C776.974 704.067 775.352 702.858 773.608 702.631C772.511 704.139 772.768 706.442 772.467 708.25C770.537 708.057 768.752 707.354 766.927 706.732L767.677 712.825C765.821 712.187 763.734 711.21 761.792 711.013C761.682 712.828 762.031 715.216 760.75 716.517C759.13 715.776 757.517 714.885 755.722 714.728C755.573 715.383 755.553 715.874 755.521 716.548C755.466 717.717 755.119 718.663 754.731 719.75L754 720.171L753.254 719.726L750.75 718.477C750.09 718.73 749.483 718.719 749.216 719.442C748.738 720.732 749.037 722.394 749.125 723.75L746.493 724.764L744.5 723.051C742.992 724.371 742.301 727.974 741.294 729.895C739.607 729.206 737.835 728.856 736.064 728.446C724.03 728.391 712.067 730.297 699.97 730.208L676.5 728.997C671.675 728.595 664.005 726.719 659.478 728.094C658.4 728.297 657.246 728.399 656.36 729.093C655.356 729.879 656.646 729.151 655.137 729.887C654.113 728.249 653.326 726.714 652.666 724.897L652.819 722.75L652.139 722.175L649.75 723.656L646.821 721.684C645.678 720.696 645.614 719.653 645.487 718.246L645.449 717.75L644.75 717.501L639 720.494L638.337 720.25C638.516 718.088 638.885 716.293 637.6 714.389C636.909 714.083 636.286 713.804 635.666 713.363L635.25 713.047L632.25 714.469L631.431 713.75L631.757 709.52L631.908 708.666C629.949 708.78 627.909 709.449 626 709.907L625.43 709.25C625.628 708.256 625.81 707.334 626.147 706.375L626.383 705.75C625.178 705.676 624.191 705.656 623.101 705.06C621.966 704.439 620.817 705.855 619.25 705.84C618.434 704.361 618.326 703.668 618.51 701.982L618.571 701.5L617.858 700.75C615.49 700.277 615.404 701.39 613.25 701.86C612.51 700.186 612.42 699.376 612.708 697.562L612.798 697.044L612 696.447L608 697.664C606.661 696.578 606.413 694.729 605.876 693.103C604.094 691.891 602.822 692.045 600.75 691.905L599.75 689.621C598.611 689.307 597.517 689.137 596.673 688.25L598.954 685.5C597.599 684.85 594.922 685.805 593.395 686.099L598.306 674.43Z"/>
	<path fill="#62B2F0" transform="scale(1.13281 1.13281)" d="M663.407 259.305L765.086 199.059L833.916 240.746L854.115 252.878C858.293 255.348 862.778 257.603 866.651 260.528L803.108 298.148L777.313 313.738C773.748 315.874 769.063 319.406 765.074 320.34C763.183 318.47 760.183 317.137 757.891 315.744L739.666 304.828L663.407 259.305Z"/>
	<path fill="#398CDA" transform="scale(1.13281 1.13281)" d="M765.934 235.523L808.144 261.428L765.65 286.525L722.744 261.439L765.934 235.523Z"/>
	<path fill="#7CC4F5" transform="scale(1.13281 1.13281)" d="M765.074 320.34C769.063 319.406 773.748 315.874 777.313 313.738L803.108 298.148L866.651 260.528L866.405 382.993L801.437 420.75L777.255 434.928C773.284 437.244 769.277 439.969 765.092 441.843L765.074 320.34Z"/>
	<path fill="#398CDA" transform="scale(1.13281 1.13281)" d="M839.373 310.025L839.438 366.568L791.562 395.041C791.359 394.777 791.067 394.562 790.952 394.25C790.781 393.785 790.954 392.043 790.954 391.467L790.959 383.087L790.984 338.969L839.373 310.025Z"/>
	<path fill="#398CDA" transform="scale(1.13281 1.13281)" d="M765.092 441.843L663.635 382.218L663.487 299.834L663.406 272.176C663.387 267.956 662.966 263.484 663.407 259.305L739.666 304.828L757.891 315.744C760.183 317.137 763.183 318.47 765.074 320.34L765.092 441.843Z"/>
	<path fill="#3A6BA8" transform="scale(1.13281 1.13281)" d="M690.057 308.37L737.037 336.93L737.045 393.895L689.942 365.53L690.057 308.37Z"/>
	<path fill="#FEFDFD" transform="scale(1.13281 1.13281)" d="M741.294 729.895C742.301 727.974 742.992 724.371 744.5 723.051L746.493 724.764L746.968 725.532C750.637 731.298 756.897 735.614 760.474 741.463C761.765 743.574 762.255 746.463 762.913 748.845L766.947 763.897L772.833 784.247C774.336 789.569 775.92 795.1 775.953 800.669C776.49 801.085 777.626 801.735 777.994 802.25C779.474 804.322 781.389 809.554 781.771 812.015L782.247 812.05C783.623 812.136 787.027 811.39 787.945 811.692C788.512 811.878 790.512 814.228 791.09 814.8C794.713 818.388 798.56 821.919 801.95 825.723C803.76 827.754 805.209 830.031 806.641 832.336C805.424 833.719 804.169 834.998 803.381 836.68C805.342 840.994 806.214 844.481 806.002 849.25C803.882 851.998 803.866 853.029 804.245 856.453L804.441 857.72L793.394 870.728L780.008 885C778.719 886.368 776.089 888.515 775.685 890.281C764.717 896.269 760.407 904.737 756.277 916.008L738.316 916.025C737.141 914.081 737.101 911.133 736.924 908.922L736.449 907.5C735.55 906.798 735.592 906.818 734.453 906.892L733 909.354C731.476 908.606 731.876 907.006 730.25 906.037C729.531 906.491 729.092 906.938 728.58 907.605L728 908.371C726.262 907.71 726.677 905.829 724.75 905.21C724.173 905.95 723.687 906.591 723.293 907.451L723.034 908.073C722.007 908.014 721.925 906.145 720.75 905.414L717 908.554L716.168 908.394C716.4 907.141 716.537 906.899 716.037 905.75C713.89 905.75 714.057 907.785 712.25 908.017C711.675 906.909 711.16 905.797 710.19 904.977L709.583 904.487C709.508 907.63 709.879 911.782 708.6 914.691L687.633 914.981L687.56 912.444C683.759 911.122 685.885 909.108 683.75 907.03L681.25 908.741L680.435 908.571C679.949 907.38 679.318 906.402 678.608 905.342L677.869 905.321L676.664 907.19L675.75 907.266L673.25 904.498C671.505 904.912 672.37 906.215 671.25 907.574L670.403 907.25C669.735 906.197 669.159 905.392 668.25 904.519C666.874 905.25 666.639 906.149 665.893 907.491C663.981 908.514 664.013 906.074 661.893 906.25C661.444 908.276 660.368 909.082 658.857 910.427C658.401 910.195 658.898 907.752 658.48 906.75L656.493 906.303C655.879 903.96 656.072 901.374 656.045 898.959L655.84 886.518L652.153 829.698L651.253 817.875C651.084 815.756 651.09 813.209 650.377 811.195C649.607 809.019 647.432 806.923 645.941 805.148C645.686 798.65 647.57 790.773 648.898 784.398L652.439 765.255C654.044 756.201 654.953 746.7 657.228 737.804C657.723 735.871 658.562 734.294 659.596 732.601C659.539 730.975 660.019 729.722 659.478 728.094C664.005 726.719 671.675 728.595 676.5 728.997L699.97 730.208C712.067 730.297 724.03 728.391 736.064 728.446C737.835 728.856 739.607 729.206 741.294 729.895Z"/>
	<path fill="#D2D9E2" transform="scale(1.13281 1.13281)" d="M659.478 728.094C664.005 726.719 671.675 728.595 676.5 728.997L699.97 730.208C712.067 730.297 724.03 728.391 736.064 728.446L736.55 735.992L696.364 768.801L659.664 734.981L659.596 732.601C659.539 730.975 660.019 729.722 659.478 728.094Z"/>
	<path fill="#E9AB5E" transform="scale(1.13281 1.13281)" d="M659.596 732.601L659.664 734.981L657.906 754.503L656.397 765.704C656.203 767.278 655.796 769.077 656.25 770.599C657.272 770.008 658.097 769.333 659 768.581C659.718 769.822 659.303 771.693 659.129 773.111C658.449 778.654 657.394 784.433 655.953 789.832C655.15 792.844 654.001 795.953 653.531 799.027L659.783 797.189C658.397 799.957 657.215 802.454 656.546 805.5L657 806.112C658.606 805.483 660.018 804.897 661.75 804.77L662.297 805.466L662.134 806.429C661.774 808.983 663.259 811.777 664.25 814.075C665.606 813.857 666.167 813.346 667.25 812.571C668.142 813.304 668.431 813.802 668.472 815L668.25 818.289L669 818.892C670.388 818.171 671.212 817.306 672.75 817.755C673.323 819.94 672.774 821.347 674.25 823.149L677.25 822.175L678.467 823L678.485 827C679.913 827.704 680.883 827.233 682.378 826.752L682.75 826.622C683.211 828.536 682.602 830.326 684.25 831.492C685.68 831.215 686.559 830.669 687.82 831.5C687.646 833.137 687.4 834.801 687.419 836.446C688.694 835.929 689.353 835.441 690.75 835.652L690.958 837.15C691.202 838.419 691.636 839.541 692.732 840.25L693.974 838.918C695.314 839.047 695.961 841.921 697.5 842.973C699.263 841.717 698.191 839.789 699.75 838.376L701.25 839.92C702.278 838.923 702.489 838.091 702.839 836.756C703.023 836.058 703.238 835.995 703.75 835.513L706.5 836.331L707.25 835.837C707.156 834.597 707.269 833.816 707.645 832.632L709.418 832.621L709.583 904.487C709.508 907.63 709.879 911.782 708.6 914.691L687.633 914.981L687.56 912.444C683.759 911.122 685.885 909.108 683.75 907.03L681.25 908.741L680.435 908.571C679.949 907.38 679.318 906.402 678.608 905.342L677.869 905.321L676.664 907.19L675.75 907.266L673.25 904.498C671.505 904.912 672.37 906.215 671.25 907.574L670.403 907.25C669.735 906.197 669.159 905.392 668.25 904.519C666.874 905.25 666.639 906.149 665.893 907.491C663.981 908.514 664.013 906.074 661.893 906.25C661.444 908.276 660.368 909.082 658.857 910.427C658.401 910.195 658.898 907.752 658.48 906.75L656.493 906.303C655.879 903.96 656.072 901.374 656.045 898.959L655.84 886.518L652.153 829.698L651.253 817.875C651.084 815.756 651.09 813.209 650.377 811.195C649.607 809.019 647.432 806.923 645.941 805.148C645.686 798.65 647.57 790.773 648.898 784.398L652.439 765.255C654.044 756.201 654.953 746.7 657.228 737.804C657.723 735.871 658.562 734.294 659.596 732.601Z"/>
	<path fill="#D6621A" transform="scale(1.13281 1.13281)" d="M687.419 836.446C688.694 835.929 689.353 835.441 690.75 835.652L690.958 837.15C691.202 838.419 691.636 839.541 692.732 840.25L693.974 838.918C695.314 839.047 695.961 841.921 697.5 842.973C699.263 841.717 698.191 839.789 699.75 838.376L701.25 839.92C702.278 838.923 702.489 838.091 702.839 836.756C703.023 836.058 703.238 835.995 703.75 835.513L706.5 836.331L707.25 835.837C707.156 834.597 707.269 833.816 707.645 832.632L709.418 832.621L709.583 904.487C709.508 907.63 709.879 911.782 708.6 914.691L687.633 914.981L687.56 912.444C687.895 906.111 687.552 899.603 687.546 893.248L687.44 858.147L687.129 842.952C687.081 840.925 686.638 838.305 687.419 836.446Z"/>
	<path fill="#ED8221" transform="scale(1.13281 1.13281)" d="M741.294 729.895C742.301 727.974 742.992 724.371 744.5 723.051L746.493 724.764L746.968 725.532C750.637 731.298 756.897 735.614 760.474 741.463C761.765 743.574 762.255 746.463 762.913 748.845L766.947 763.897L772.833 784.247C774.336 789.569 775.92 795.1 775.953 800.669C776.49 801.085 777.626 801.735 777.994 802.25C779.474 804.322 781.389 809.554 781.771 812.015L782.247 812.05C783.623 812.136 787.027 811.39 787.945 811.692C788.512 811.878 790.512 814.228 791.09 814.8C794.713 818.388 798.56 821.919 801.95 825.723C803.76 827.754 805.209 830.031 806.641 832.336C805.424 833.719 804.169 834.998 803.381 836.68C805.342 840.994 806.214 844.481 806.002 849.25C803.882 851.998 803.866 853.029 804.245 856.453L804.441 857.72L793.394 870.728L780.008 885C778.719 886.368 776.089 888.515 775.685 890.281C764.717 896.269 760.407 904.737 756.277 916.008L738.316 916.025C737.141 914.081 737.101 911.133 736.924 908.922L736.449 907.5C735.55 906.798 735.592 906.818 734.453 906.892L733 909.354C731.476 908.606 731.876 907.006 730.25 906.037C729.531 906.491 729.092 906.938 728.58 907.605L728 908.371C726.262 907.71 726.677 905.829 724.75 905.21C724.173 905.95 723.687 906.591 723.293 907.451L723.034 908.073C722.007 908.014 721.925 906.145 720.75 905.414L717 908.554L716.168 908.394C716.4 907.141 716.537 906.899 716.037 905.75C713.89 905.75 714.057 907.785 712.25 908.017C711.675 906.909 711.16 905.797 710.19 904.977L709.583 904.487L709.418 832.621C710.516 832.927 710.284 833.09 711.379 832.488L711.458 829.25L712.25 828.535L714.063 829.798C715.499 829.051 714.618 827.544 715.634 826.173C716.612 826.301 717.165 826.517 717.96 827.078L718.75 827.647L719.474 827C719.32 825.809 719.121 824.914 719.509 823.75C720.597 823.4 721.101 823.407 722.156 823.767C723.178 824.116 723.087 824.138 724.25 823.889C724.519 822.603 724.544 821.339 724.611 820.032C726.31 819.035 727.128 820.584 728.871 819.982L729.059 817C730.537 815.041 731.924 817.321 733.785 815.91L732.522 813L733.122 812.183C733.918 812.353 734.576 812.559 735.384 812.317L736.003 812.075C736.929 811.724 737.569 811.506 738.286 810.807L735.823 803.74L742.575 805.329C741.82 803.185 739.484 799.075 739.75 796.982C740.632 797.019 741.467 797.062 742.338 797.221L742.957 797.347C743.409 795.345 742.241 792.482 741.768 790.473L738.691 775.808C738.149 773.196 737.055 769.707 737.536 767.098C738.752 767.235 740.104 769.256 740.961 770.215L736.55 735.992L736.064 728.446C737.835 728.856 739.607 729.206 741.294 729.895Z"/>
	<path fill="#71717C" transform="scale(1.13281 1.13281)" d="M775.953 800.669C776.49 801.085 777.626 801.735 777.994 802.25C779.474 804.322 781.389 809.554 781.771 812.015C779.647 811.758 777.537 812.251 775.441 812.585L775.953 800.669Z"/>
	<path fill="#E9AB5E" transform="scale(1.13281 1.13281)" d="M736.064 728.446C737.835 728.856 739.607 729.206 741.294 729.895C739.701 733.242 742.6 742.587 743.344 746.513L753.023 795.02C753.384 797.3 754.273 800.677 754.08 802.936C754.03 803.525 753.036 805.102 752.75 805.645C750.51 809.891 749.363 812.944 748.625 817.747L744.429 848.647L736.924 908.922L736.449 907.5C735.55 906.798 735.592 906.818 734.453 906.892L733 909.354C731.476 908.606 731.876 907.006 730.25 906.037C729.531 906.491 729.092 906.938 728.58 907.605L728 908.371C726.262 907.71 726.677 905.829 724.75 905.21C724.173 905.95 723.687 906.591 723.293 907.451L723.034 908.073C722.007 908.014 721.925 906.145 720.75 905.414L717 908.554L716.168 908.394C716.4 907.141 716.537 906.899 716.037 905.75C713.89 905.75 714.057 907.785 712.25 908.017C711.675 906.909 711.16 905.797 710.19 904.977L709.583 904.487L709.418 832.621C710.516 832.927 710.284 833.09 711.379 832.488L711.458 829.25L712.25 828.535L714.063 829.798C715.499 829.051 714.618 827.544 715.634 826.173C716.612 826.301 717.165 826.517 717.96 827.078L718.75 827.647L719.474 827C719.32 825.809 719.121 824.914 719.509 823.75C720.597 823.4 721.101 823.407 722.156 823.767C723.178 824.116 723.087 824.138 724.25 823.889C724.519 822.603 724.544 821.339 724.611 820.032C726.31 819.035 727.128 820.584 728.871 819.982L729.059 817C730.537 815.041 731.924 817.321 733.785 815.91L732.522 813L733.122 812.183C733.918 812.353 734.576 812.559 735.384 812.317L736.003 812.075C736.929 811.724 737.569 811.506 738.286 810.807L735.823 803.74L742.575 805.329C741.82 803.185 739.484 799.075 739.75 796.982C740.632 797.019 741.467 797.062 742.338 797.221L742.957 797.347C743.409 795.345 742.241 792.482 741.768 790.473L738.691 775.808C738.149 773.196 737.055 769.707 737.536 767.098C738.752 767.235 740.104 769.256 740.961 770.215L736.55 735.992L736.064 728.446Z"/>
	<defs>
		<linearGradient id="gradient_0" gradientUnits="userSpaceOnUse" x1="670.4104" y1="507.00671" x2="722.71014" y2="698.59821">
			<stop offset="0" stop-color="#E3731A"/>
			<stop offset="1" stop-color="#FB9A29"/>
		</linearGradient>
	</defs>
	<path fill="url(#gradient_0)" transform="scale(1.13281 1.13281)" d="M598.306 674.43L591.959 676.348L612.965 623.101L600.956 603.495C599.829 601.636 597.481 598.524 596.945 596.458C596.664 595.374 596.946 593.244 596.949 592.073L597.027 581.639L598.04 525.923L636.568 526.2L676.445 567.962L712.719 567.896C714.084 567.899 720.227 568.441 721.174 567.976C721.594 567.77 722.494 566.669 722.868 566.297L728.383 560.75C738.734 550.14 750.184 539.086 758.761 527.002L799.344 526.652C799.856 528.538 799.579 530.98 799.574 532.95L799.55 544.423L799.399 591.889L787.094 610.545C785.365 613.217 782.932 616.255 781.852 619.218L798.755 670.997L806.186 671.665L799.487 680.749C798.657 681.624 797.829 681.91 796.75 682.397L796.283 681.75L799.482 675.517L770.236 675.616C767.614 675.575 761.081 674.676 759.25 675.994C759.494 676.77 759.524 677.041 759.485 677.898C757.288 678.185 754.581 678.03 752.647 679.116L752.75 680.501C750.408 682.042 748.686 680.912 746.25 682.113C746.157 682.466 746.055 682.946 745.856 683.25C744.793 684.876 740.737 684.337 738.75 685.04L738.566 686.5C737.999 687.883 732.839 687.199 731.207 687.848C730.646 688.071 730.932 689.411 730.566 690.25C728.398 690.952 726.828 691.424 724.514 691.173L724 691.106C723.247 691.713 723.043 691.994 722.668 692.931L722.376 693.75C721.173 694.433 720.632 694.48 719.242 694.318L717.75 694.14C717.438 694.132 717.125 694.153 716.813 694.175C715.641 694.257 716.438 696.143 715.043 696.993C713.016 698.227 710.954 697.437 708.938 699.376C707.949 700.326 707.314 701 706.009 701.502L695.571 706.539C694.503 706.383 694.868 706.56 694.02 705.983C691.722 704.418 689.294 703.493 687 702.047C685.161 700.888 684.062 699.336 681.858 698.68L678.75 697.8C678.613 696.897 678.495 696.37 677.976 695.612L675.998 695.548C673.417 695.333 672.413 694.194 670.862 692.267L670.374 691.654C668.366 691.645 667.253 691.532 665.491 690.537C665.133 689.912 664.95 689.545 664.874 688.81L664.842 688.25L657.987 686.75L658.354 685.859L658 685.109C656.519 684.603 654.782 683.824 653.219 683.82C652.166 683.816 652.751 683.917 651.626 683.5L651.757 682.25L650.75 681.459C648.674 681.48 645.325 681.637 643.75 680.269C644.088 679.495 644.253 679.027 644.374 678.173C643.148 678.132 641.866 678.15 640.665 677.891C638.323 677.386 634.506 678.127 632.673 677C633.26 676.098 633.451 676.21 633.25 675.089C630.535 675.099 627.606 675.354 624.952 674.75L625.276 673L624.75 672.441C620.056 672.445 601.091 672.03 598.306 674.43Z"/>
	<path fill="#0F070A" transform="scale(1.13281 1.13281)" d="M666.06 655.544C665.779 658.949 664.751 661.878 662.405 664.431C660.651 666.341 658.625 668.112 655.891 668.099C653.128 668.086 649.724 666.669 647.896 664.588C645.948 662.369 645.724 658.678 645.926 655.87C646.154 652.708 648.038 650.1 650.476 648.18C652.16 646.854 654.818 645.816 656.986 646.133C659.876 646.555 661.775 647.955 663.444 650.271L663.946 650.75L665.006 651C665.75 652.305 666.112 653.284 666.443 654.75L666.06 655.544Z"/>
	<path fill="#FEFDFD" transform="scale(1.13281 1.13281)" d="M666.06 655.544L664.25 657.914C662.96 659.313 660.936 660.327 659 660.187C657.06 660.046 654.916 658.795 653.649 657.356C652.386 655.923 651.185 653.3 651.606 651.348C651.994 649.549 653.237 648.085 654.75 647.152C658.41 646.658 660.473 648.429 663.444 650.271L663.946 650.75L665.006 651C665.75 652.305 666.112 653.284 666.443 654.75L666.06 655.544Z"/>
	<path fill="#0F070A" transform="scale(1.13281 1.13281)" d="M745.903 654.848L746.255 655.75C746.958 658.9 744.821 662.568 742.773 664.75C740.761 666.893 738.08 668.99 735 668.976C732.294 668.963 729.052 667.404 727.381 665.289C725.608 663.045 725.201 659.523 725.572 656.75C726.035 653.279 727.881 650.285 730.67 648.177C733.116 646.328 735.597 646.292 738.5 646.641L738.953 647.325C740.068 647.948 741.458 648.604 742.322 649.557C743.801 651.187 744.107 653.401 745.903 654.848Z"/>
	<path fill="#FEFDFD" transform="scale(1.13281 1.13281)" d="M745.903 654.848C745.423 655.653 745.098 656.544 744.691 657.389C743.584 659.687 742.632 660.624 740.25 661.466C737.771 661.063 735.97 659.824 734.061 658.232C732.24 656.714 731.017 655.239 730.963 652.75C730.929 651.2 731.41 650.49 732.445 649.422C734.388 647.414 736.317 647.388 738.953 647.325C740.068 647.948 741.458 648.604 742.322 649.557C743.801 651.187 744.107 653.401 745.903 654.848Z"/>
	<path fill="#0F070A" transform="scale(1.13281 1.13281)" d="M683.068 676.985C691.701 676.978 701.098 676.208 709.633 677.25C710.709 678.431 711.135 679.527 711.191 681.105C711.363 686.023 707.166 689.598 704.003 692.839L696.252 700.121L684.753 687.924C684.206 687.268 682.798 685.667 682.567 684.863C681.996 682.879 682.845 679.087 683.068 676.985Z"/>
	<path fill="#FEFDFD" transform="scale(1.13281 1.13281)" d="M773.268 542.742C776.734 544.976 781.144 546.981 784.221 549.641C784.49 549.874 784.531 581.041 784.784 584.75C785.052 588.688 777.699 598.101 775.364 601.755L763.581 591.912C756.099 585.458 749.056 577.814 740.842 572.373L773.268 542.742Z"/>
	<path fill="#FEFDFD" transform="scale(1.13281 1.13281)" d="M611.602 542.916C614.935 542.934 620.204 542.406 623.333 543.335C626.266 544.206 651.741 569.366 656.409 573.807L639.145 588.402L618.469 605.857L613.756 591.694C612.873 589.327 611.368 586.45 610.991 583.969C610.027 577.627 611.083 570.007 611.329 563.524L611.602 542.916Z"/>
	<path fill="#EBC13F" transform="scale(1.13281 1.13281)" d="M364.423 106.523C365.376 90.3838 363.762 74.8655 352.648 62.2223L350.953 60.3587C358.853 60.7861 366.659 61.1187 374.436 62.6861C391.505 66.1264 407.479 74.9431 419.103 87.9145C428.055 97.9027 433.058 109.382 435.406 122.485L461.959 122.753C467.636 116.621 473.431 110.065 477.334 102.63C481.55 94.5992 485.133 81.4686 482.256 72.5984L482.054 72.0109L488.958 75.6195C503.997 83.6209 517.709 96.4105 522.812 113.047C525.228 120.925 526.202 128.637 525.434 136.873C531.959 133.096 537.279 125.967 540.924 119.512L543.409 114.261C557.476 131.454 565.489 152.257 563.377 174.637C562.899 179.698 561.665 184.627 559.969 189.413C574.08 192.952 587.28 195.777 601.899 193.434L611.167 191.411C610.429 197.508 609.649 203.575 607.838 209.466C603.85 222.442 595.66 233.932 585.011 242.332L581.816 244.745L581.501 244.974C591.016 246.994 600.573 246.978 609.997 244.233C606.245 257.124 600.822 268.411 592.097 278.75C589.926 281.323 587.738 284.049 585.101 286.164L584.649 286.248C581.559 286.858 578.72 288.385 575.68 289.266C568.256 291.417 558.947 292.494 551.25 291.827C546.813 291.443 542.393 289.723 538.072 289.418C531.577 285.421 525.244 283.065 519.438 277.752L518.935 277.283L478.391 284.696C473.918 285.404 469.07 286.657 464.545 286.715C460.347 286.769 455.189 284.576 451.27 283.221C427.396 274.969 404.857 261.315 384.5 246.543C375.928 240.323 367.264 233.922 359.724 226.46C354.596 230.819 349.125 234.864 344.506 239.774L334.293 248.483C326.102 249.653 316.588 250.229 308.3 249.825L190.505 199.537C196.993 195.23 204.11 191.524 210.814 187.524L255.882 160.554L294.773 137.249C301.752 133.096 308.852 128.269 316.227 124.906L352.066 124.955L359.879 125.088L364.423 106.523Z"/>
	<path fill="#D6A729" transform="scale(1.13281 1.13281)" d="M540.924 119.512C542.228 121.361 542.569 121.751 542.191 124.096C540.45 134.875 530.336 147.354 521.397 153.195C517.129 155.985 512.426 157.862 507.704 159.729C510.42 155.517 514.802 151.825 517.883 147.75C520.4 144.42 522.451 139.655 525.434 136.873C531.959 133.096 537.279 125.967 540.924 119.512Z"/>
	<path fill="#D6A729" transform="scale(1.13281 1.13281)" d="M461.959 122.753C467.636 116.621 473.431 110.065 477.334 102.63C481.55 94.5992 485.133 81.4686 482.256 72.5984L482.054 72.0109L488.958 75.6195C490.584 80.3907 492.149 84.6371 493.164 89.6228C495.009 98.6877 491.391 110.777 487.39 118.806C486.716 120.157 486.054 122.082 485.168 123.271L484.763 123.666L461.959 122.753Z"/>
	<path fill="#D6A729" transform="scale(1.13281 1.13281)" d="M601.899 193.434L611.167 191.411C610.429 197.508 609.649 203.575 607.838 209.466C603.85 222.442 595.66 233.932 585.011 242.332L581.816 244.745L581.501 244.974C591.016 246.994 600.573 246.978 609.997 244.233C606.245 257.124 600.822 268.411 592.097 278.75C589.926 281.323 587.738 284.049 585.101 286.164L584.649 286.248C581.559 286.858 578.72 288.385 575.68 289.266C568.256 291.417 558.947 292.494 551.25 291.827C546.813 291.443 542.393 289.723 538.072 289.418C531.577 285.421 525.244 283.065 519.438 277.752L518.935 277.283L478.391 284.696C473.918 285.404 469.07 286.657 464.545 286.715C460.347 286.769 455.189 284.576 451.27 283.221C427.396 274.969 404.857 261.315 384.5 246.543C375.928 240.323 367.264 233.922 359.724 226.46L370.424 216.982C371.831 216.861 379.41 223.763 381.25 225.115C403.147 241.206 442.917 269.35 471.25 264.759C476.034 263.984 480.267 262.954 484.732 261.03C481.908 256.746 479.432 251.918 477.041 247.361C474.388 242.307 471.7 237.375 470.232 231.821L472.644 234.949C475.463 239.025 479.33 243.013 483.161 246.171C493.848 254.983 505.742 259.356 519.413 261.215C541.986 264.285 562.6 259.039 580.795 245.28C565.725 241.336 550.949 235.818 538.984 225.526C541.169 225.146 543.988 225.835 546.25 225.917C552.135 226.129 558.15 226.217 564 225.517C570.827 224.699 576.897 222.811 582.906 219.452C592.577 214.046 598.935 203.909 601.899 193.434Z"/>
	<path fill="#2A4D90" transform="scale(1.13281 1.13281)" d="M346.948 711.021L474.961 711.066L474.942 731.054L474.997 844.053L486.952 844.034L486.887 877.543C493.736 878.045 498.929 878.116 504.913 881.915C509.084 882.847 513.15 884.644 517.187 886.055L546.793 896.951L575.998 885.8L599.295 877.284C604.157 875.52 609.843 874.189 613.949 870.965L614.212 871.531C615.242 873.827 614.767 876.851 616.75 878.605C617.372 878.822 618.775 879.108 619.25 879.477C621.019 880.854 622.691 885.02 624.255 886.957C631.853 892.307 641.524 901.904 643.319 911.425L643.998 915.947L656.527 915.523L656.493 906.303L658.48 906.75C658.898 907.752 658.401 910.195 658.857 910.427C660.368 909.082 661.444 908.276 661.893 906.25C664.013 906.074 663.981 908.514 665.893 907.491C666.639 906.149 666.874 905.25 668.25 904.519C669.159 905.392 669.735 906.197 670.403 907.25L671.25 907.574C672.37 906.215 671.505 904.912 673.25 904.498L675.75 907.266L676.664 907.19L677.869 905.321L678.608 905.342C679.318 906.402 679.949 907.38 680.435 908.571L681.25 908.741L683.75 907.03C685.885 909.108 683.759 911.122 687.56 912.444L687.633 914.981L708.6 914.691C709.879 911.782 709.508 907.63 709.583 904.487L710.19 904.977C711.16 905.797 711.675 906.909 712.25 908.017C714.057 907.785 713.89 905.75 716.037 905.75C716.537 906.899 716.4 907.141 716.168 908.394L717 908.554L720.75 905.414C721.925 906.145 722.007 908.014 723.034 908.073L723.293 907.451C723.687 906.591 724.173 905.95 724.75 905.21C726.677 905.829 726.262 907.71 728 908.371L728.58 907.605C729.092 906.938 729.531 906.491 730.25 906.037C731.876 907.006 731.476 908.606 733 909.354L734.453 906.892C735.592 906.818 735.55 906.798 736.449 907.5L736.924 908.922C737.101 911.133 737.141 914.081 738.316 916.025L756.277 916.008C760.407 904.737 764.717 896.269 775.685 890.281C776.089 888.515 778.719 886.368 780.008 885L793.394 870.728L804.441 857.72L804.245 856.453C803.866 853.029 803.882 851.998 806.002 849.25C806.214 844.481 805.342 840.994 803.381 836.68C804.169 834.998 805.424 833.719 806.641 832.336L807.163 832.46C808.563 830.979 809.074 828.946 809.758 827.063C812.098 827.844 813.989 828.636 816.063 830.012L816.612 830.385C817.117 828.569 817.415 825.875 818.542 824.359C819.207 823.466 819.46 823.684 820.5 823.528C822.604 824.729 824.753 825.592 827.003 826.463L827.929 817.605C831.044 818.587 833.783 819.682 836.541 821.439C837.261 824.928 867.227 852.938 871.913 857.365C875.186 860.458 881.631 864.83 883.517 868.896L882.973 869.217C882.906 870.853 882.423 872.567 883.548 873.803L934.448 893.469C933.378 894.41 931.351 894.942 930 895.453L919.541 899.382L871.974 917.63L816.966 938.659L770.939 955.847L728.996 972.25C723.442 974.397 717.696 977.11 711.987 978.728L671.916 963.939L577.5 929.458L554.601 920.642L548.454 918.133C548.025 917.951 546.443 917.111 546.053 917.077C545.544 917.033 543.184 918.231 542.5 918.518C521.148 927.463 499.062 934.605 477.129 941.957L426.13 959.777L377.241 977.256C372.506 978.937 366.524 982.144 361.639 982.861C359.572 983.164 329.69 971.884 324.413 970.163L200.305 927.776L151.046 911.259C142.27 908.371 133.085 905.918 124.527 902.462C124.003 902.25 123.596 902.005 123.156 901.653C119.739 901.259 116.022 899.79 112.742 898.726C104.999 896.216 97.4335 893.102 89.5585 891.024L121.939 877.177L121.86 900.25L122.955 901.114L267.664 901.013L267.834 875.959L298.258 876.098L298.317 870.207C303.569 867.582 309.851 866.281 315.526 864.847C315.501 863.754 315.629 862.713 315.75 861.629L317.674 861.241C322.63 862.201 328.137 861.823 333.185 861.887L346.916 861.994L346.948 711.021Z"/>
	<path fill="#FEFDFD" transform="scale(1.13281 1.13281)" d="M709.583 904.487L710.19 904.977C711.16 905.797 711.675 906.909 712.25 908.017C714.057 907.785 713.89 905.75 716.037 905.75C716.537 906.899 716.4 907.141 716.168 908.394L717 908.554L720.75 905.414C721.925 906.145 722.007 908.014 723.034 908.073L723.293 907.451C723.687 906.591 724.173 905.95 724.75 905.21C726.677 905.829 726.262 907.71 728 908.371L728.58 907.605C729.092 906.938 729.531 906.491 730.25 906.037C731.876 907.006 731.476 908.606 733 909.354L734.453 906.892C735.592 906.818 735.55 906.798 736.449 907.5L736.924 908.922C737.101 911.133 737.141 914.081 738.316 916.025C738.458 917.856 738.505 919.775 738.893 921.57C739.072 922.397 739.322 923.115 739.149 923.971C738.471 927.333 735.65 930.793 732.858 932.639C728.948 935.224 723.227 936.249 718.62 935.187C714.42 934.219 711.272 931.053 709.264 927.383C707.978 925.032 707.831 917.249 708.6 914.691C709.879 911.782 709.508 907.63 709.583 904.487Z"/>
	<path fill="#FEFDFD" transform="scale(1.13281 1.13281)" d="M656.493 906.303L658.48 906.75C658.898 907.752 658.401 910.195 658.857 910.427C660.368 909.082 661.444 908.276 661.893 906.25C664.013 906.074 663.981 908.514 665.893 907.491C666.639 906.149 666.874 905.25 668.25 904.519C669.159 905.392 669.735 906.197 670.403 907.25L671.25 907.574C672.37 906.215 671.505 904.912 673.25 904.498L675.75 907.266L676.664 907.19L677.869 905.321L678.608 905.342C679.318 906.402 679.949 907.38 680.435 908.571L681.25 908.741L683.75 907.03C685.885 909.108 683.759 911.122 687.56 912.444L687.633 914.981C687.709 920.247 688.33 925.801 684.471 930C681.143 933.621 676.663 935.572 671.784 935.599C667.358 935.623 663.482 934.275 660.25 931.142C657.711 928.68 656.032 925.862 656.087 922.25L656.527 915.523L656.493 906.303Z"/>
	<path fill="#FEFDFD" transform="scale(1.13281 1.13281)" d="M775.685 890.281C782.525 888.63 788.442 889.619 794.444 893.342L798.424 896.18C803.348 902.686 804.089 907.838 804.013 915.809L756.277 916.008C760.407 904.737 764.717 896.269 775.685 890.281Z"/>
	<path fill="#D2D9E2" transform="scale(1.13281 1.13281)" d="M624.255 886.957C631.853 892.307 641.524 901.904 643.319 911.425L643.998 915.947L613.589 915.965C609.479 915.964 603.657 916.68 599.75 915.649C599.381 914.762 599.194 914.067 599.116 913.098C598.585 906.481 600.153 899.503 604.708 894.502C610.343 888.317 616.298 887.204 624.255 886.957Z"/>
	<path fill="#387837" transform="scale(1.13281 1.13281)" d="M315.526 864.847C315.501 863.754 315.629 862.713 315.75 861.629L317.674 861.241C322.63 862.201 328.137 861.823 333.185 861.887L333.428 885.43C333.458 889.639 332.903 894.96 334.144 899C335.206 902.458 337.224 905.148 339.804 907.615C343.692 911.333 348.79 913.133 354 914.061L354.644 914.184C359.749 915.095 365.612 914.666 370.807 914.726L404.91 914.582L404.987 925.388L315.5 925.578L315.526 864.847Z"/>
	<path fill="#599440" transform="scale(1.13281 1.13281)" d="M346.916 861.994L378.989 862.053L387.054 862.019L386.808 894.028C392.783 894.221 396.451 893.75 400.784 898.348C402.145 899.792 403.372 901.438 404.356 903.161C404.907 906.993 404.938 910.716 404.91 914.582L370.807 914.726C365.612 914.666 359.749 915.095 354.644 914.184L354 914.061C348.79 913.133 343.692 911.333 339.804 907.615C337.224 905.148 335.206 902.458 334.144 899C332.903 894.96 333.458 889.639 333.428 885.43L333.185 861.887L346.916 861.994Z"/>
	<path fill="#D6621A" transform="scale(1.13281 1.13281)" d="M806.641 832.336L807.163 832.46C808.563 830.979 809.074 828.946 809.758 827.063C812.098 827.844 813.989 828.636 816.063 830.012L816.612 830.385C817.117 828.569 817.415 825.875 818.542 824.359C819.207 823.466 819.46 823.684 820.5 823.528C822.604 824.729 824.753 825.592 827.003 826.463L827.929 817.605C831.044 818.587 833.783 819.682 836.541 821.439C837.261 824.928 867.227 852.938 871.913 857.365C875.186 860.458 881.631 864.83 883.517 868.896L882.973 869.217L882.796 869.881C882.022 873.009 882.397 877.254 882.318 880.523C877.953 880.483 873.397 880.706 869.083 880.017L869.009 885.923C863.544 886.549 857.449 886.061 851.924 886.037L851.649 892.089L840.912 888.845C839.583 890.145 838.669 892.212 837.74 893.821L828.335 888.887C827.671 890.724 827.433 892.562 825.75 893.633C821.598 893.784 820.693 892.202 817.544 889.838C817.395 889.727 817.276 889.481 817.092 889.511C816.876 889.547 816.792 889.831 816.64 889.988C813.972 892.73 811.314 894.021 807.699 895.079L804.392 890.157C802.021 891.765 799.543 893.416 798.424 896.18L794.444 893.342C788.442 889.619 782.525 888.63 775.685 890.281C776.089 888.515 778.719 886.368 780.008 885L793.394 870.728L804.441 857.72L804.245 856.453C803.866 853.029 803.882 851.998 806.002 849.25C806.214 844.481 805.342 840.994 803.381 836.68C804.169 834.998 805.424 833.719 806.641 832.336Z"/>
	<path fill="#387837" transform="scale(1.13281 1.13281)" d="M419.472 843.987L444.992 843.947L446.011 844.089L474.997 844.053L486.952 844.034L486.887 877.543C493.736 878.045 498.929 878.116 504.913 881.915C509.303 887.65 509.172 891.379 509.054 898.431L509.057 909.374L415.766 909.451L415.513 899.435L415.269 859.25L415.248 848.907C415.253 847.331 415.012 845.485 415.75 844.062L419.472 843.987Z"/>
	<path fill="#599440" transform="scale(1.13281 1.13281)" d="M474.997 844.053L486.952 844.034L486.887 877.543C493.736 878.045 498.929 878.116 504.913 881.915C509.303 887.65 509.172 891.379 509.054 898.431L489.287 898.432C476.292 898.347 462.439 898.198 452.344 888.69C449.66 886.163 447.711 883.052 446.891 879.422C445.93 875.163 446.424 869.888 446.403 865.482L446.011 844.089L474.997 844.053Z"/>
	<path fill="#2A4D90" transform="scale(1.13281 1.13281)" d="M346.948 711.021L474.961 711.066L474.942 731.054L474.997 844.053L446.011 844.089L444.992 843.947L419.472 843.987L415.75 844.062C415.012 845.485 415.253 847.331 415.248 848.907L415.269 859.25L415.513 899.435C411.933 901.14 408.206 902.238 404.356 903.161C403.372 901.438 402.145 899.792 400.784 898.348C396.451 893.75 392.783 894.221 386.808 894.028L387.054 862.019L378.989 862.053L346.916 861.994L346.948 711.021Z"/>
	<path fill="#132379" transform="scale(1.13281 1.13281)" d="M419.452 747.973C420.617 745.99 425.217 744.293 427.375 743.208L444.893 734.207L444.992 843.947L419.472 843.987L419.452 747.973Z"/>
	<path fill="#3A6BA8" transform="scale(1.13281 1.13281)" d="M378.989 862.053L378.538 768.061L419.452 747.973L419.472 843.987L415.75 844.062C415.012 845.485 415.253 847.331 415.248 848.907L415.269 859.25L415.513 899.435C411.933 901.14 408.206 902.238 404.356 903.161C403.372 901.438 402.145 899.792 400.784 898.348C396.451 893.75 392.783 894.221 386.808 894.028L387.054 862.019L378.989 862.053Z"/>
	<path fill="#FBD193" transform="scale(1.13281 1.13281)" d="M190.505 199.537L308.3 249.825C316.588 250.229 326.102 249.653 334.293 248.483L344.506 239.774C349.125 234.864 354.596 230.819 359.724 226.46C367.264 233.922 375.928 240.323 384.5 246.543C404.857 261.315 427.396 274.969 451.27 283.221C455.189 284.576 460.347 286.769 464.545 286.715C469.07 286.657 473.918 285.404 478.391 284.696L518.935 277.283L519.438 277.752C525.244 283.065 531.577 285.421 538.072 289.418L538.087 323.137L538.092 438.039L471 477.938L453.899 487.967C450.443 489.914 446.103 491.729 443.069 494.207L443.081 506.798L442.708 506.874C436.92 505.572 428.461 509.545 422.856 511.309C411.742 514.809 400.769 517.943 390.122 522.781C384.645 520.848 378.691 516.704 373.592 513.826L340.63 495.34L262.376 452.872C258.796 454.438 255.909 457.994 252.89 460.497C243.625 454.203 235.281 445.327 226.947 437.833L190.723 406.107L190.505 199.537Z"/>
	<path fill="#D6621A" transform="scale(1.13281 1.13281)" d="M447.563 436.206C451.043 436.341 454.695 436.305 457.883 437.899C459.396 438.655 460.477 439.424 461.048 441C460.882 441.76 460.666 442.393 460.241 443.053C457.966 446.592 454.535 447.662 450.626 448.383C448.329 448.333 445.952 448.179 443.75 447.472C441.544 446.763 438.111 444.321 437.351 442.038C436.854 440.542 437.232 440.237 437.963 438.952C441.1 437.016 443.976 436.544 447.563 436.206Z"/>
	<path fill="#E9AB5E" transform="scale(1.13281 1.13281)" d="M446.539 394.602C452.575 394.596 460.174 393.723 465.918 395.626C467.022 396.641 467.854 397.501 468.421 398.91L468.637 399.474L469.104 400.648C470.14 403.867 469.83 409.156 468.191 412.14C466.974 414.356 465.902 414.875 463.625 415.494L451.428 415.509C448.83 415.491 445.748 415.673 443.3 414.717C442.086 414.243 440.985 412.213 440.534 411.031C439.227 407.607 439.062 402.404 440.733 399.058C442.039 396.442 443.843 395.407 446.539 394.602Z"/>
	<path fill="#EBC13F" transform="scale(1.13281 1.13281)" d="M501.631 304.185C504.901 303.933 508.066 304.107 511.297 304.68C520.68 306.343 528.329 311.097 533.847 318.86L526.616 327.273C521.31 322.905 516.356 319.134 509.495 317.555L508.883 317.419L505.344 317.071C497.174 316.691 490.024 321.724 484.2 326.875L474.952 319.286L475.432 318.507C481.459 310.102 491.663 305.402 501.631 304.185Z"/>
	<path fill="#EBC13F" transform="scale(1.13281 1.13281)" d="M365.906 304.155C373.923 303.337 381.128 304.427 388.297 308.138L389 308.507C393.571 310.877 396.902 314.069 400.449 317.753L391.11 326.661C385.827 321.658 380.972 319.105 373.852 317.437C370.718 317.248 367.205 317.123 364.201 318.134L363.5 318.378C357.129 320.438 353.72 323.395 348.885 327.956L339.428 320.381C340.013 318.975 341.477 317.772 342.529 316.692C346.534 312.581 351.705 308.823 357.043 306.628L357.831 306.311C360.549 305.189 363.029 304.636 365.906 304.155Z"/>
	<path fill="#205355" transform="scale(1.13281 1.13281)" d="M501.428 348.625C503.172 348.561 505.074 348.732 506.764 349.166C511.354 350.344 515.267 353.608 517.649 357.648C518.546 359.169 519.374 360.867 519.77 362.595C520.358 365.168 520.03 368.495 520.014 371.138C519.984 375.868 520.557 381.691 519.315 386.231L519.086 387C518.414 389.355 517.598 391.562 516.098 393.538C513.051 397.555 509.016 398.971 504.243 399.817C500.503 399.805 497.207 399.092 494 397.103C489.892 394.556 487.06 390.299 486.066 385.592C485.4 382.436 485.611 378.971 485.599 375.759C485.572 368.81 485.141 361.658 489.363 355.684C492.395 351.395 496.47 349.609 501.428 348.625Z"/>
	<path fill="#205355" transform="scale(1.13281 1.13281)" d="M373.927 348.585C377.152 348.424 379.958 348.385 383.01 349.696C387.457 351.605 391.017 355.345 392.687 359.896C394.099 363.743 393.952 367.706 393.998 371.735C394.068 377.781 394.695 383.964 391.96 389.56C389.29 395.022 384.915 397.779 379.318 399.591C376.162 400.007 372.909 399.907 369.938 398.638C365.285 396.65 361.554 392.932 359.852 388.141C358.427 384.13 358.654 380.341 358.595 376.167C358.506 369.914 357.879 363.694 360.897 357.953C363.786 352.455 368.276 350.295 373.927 348.585Z"/>
	<path fill="#C1912E" transform="scale(1.13281 1.13281)" d="M190.505 199.537L308.3 249.825C316.588 250.229 326.102 249.653 334.293 248.483L344.506 239.774L344.478 240.405C344.227 245.366 342.939 250.243 342.17 255.145L337.085 286.493C336.28 290.909 334.88 295.557 334.562 300.008C334.121 306.177 334.422 312.553 334.444 318.739L334.463 350.311L334.045 453.054L334.784 453.433L348.799 461.36L390.455 484.682C398.903 489.567 407.073 495.02 415.879 499.256C419.085 500.798 422.77 502.383 426.308 502.832C432.325 500.238 437.568 497.753 443.069 494.207L443.081 506.798L442.708 506.874C436.92 505.572 428.461 509.545 422.856 511.309C411.742 514.809 400.769 517.943 390.122 522.781C384.645 520.848 378.691 516.704 373.592 513.826L340.63 495.34L262.376 452.872C258.796 454.438 255.909 457.994 252.89 460.497C243.625 454.203 235.281 445.327 226.947 437.833L190.723 406.107L190.505 199.537Z"/>
	<path fill="#E9AB5E" transform="scale(1.13281 1.13281)" d="M334.293 248.483L344.506 239.774L344.478 240.405C344.227 245.366 342.939 250.243 342.17 255.145L337.085 286.493C336.28 290.909 334.88 295.557 334.562 300.008C334.121 306.177 334.422 312.553 334.444 318.739L334.463 350.311L334.045 453.054L334.784 453.433L348.799 461.36L390.455 484.682C398.903 489.567 407.073 495.02 415.879 499.256C419.085 500.798 422.77 502.383 426.308 502.832C432.325 500.238 437.568 497.753 443.069 494.207L443.081 506.798L442.708 506.874C436.92 505.572 428.461 509.545 422.856 511.309C411.742 514.809 400.769 517.943 390.122 522.781C384.645 520.848 378.691 516.704 373.592 513.826L340.63 495.34L262.376 452.872C262.714 452.252 263.037 451.473 263.057 450.75C263.105 449.016 261.451 445.858 260.837 444.083L255.835 428.158C254.396 427.404 252.766 427.077 251.25 426.499C239.552 422.038 232.727 411.931 227.75 400.947C223.152 390.798 221.741 380.162 225.854 369.582C229.454 360.322 237.399 352.381 246.393 348.378C252.486 350.154 257.021 353.41 261.374 357.953C273.694 370.81 276.273 387.402 275.871 404.494L294.914 392.924C299.613 390.09 304.689 387.577 308.87 383.995L308.374 313.604C307.671 306.836 308.282 299.544 308.302 292.716L308.3 249.825C316.588 250.229 326.102 249.653 334.293 248.483Z"/>
	<path fill="#D6A729" transform="scale(1.13281 1.13281)" d="M308.3 249.825C316.588 250.229 326.102 249.653 334.293 248.483C331.824 253.341 330.106 258.727 328.17 263.826L318.52 288.583C315.428 296.8 312.508 305.885 308.374 313.604C307.671 306.836 308.282 299.544 308.302 292.716L308.3 249.825Z"/>
	<path fill="#A73825" transform="scale(1.13281 1.13281)" d="M262.376 452.872L340.63 495.34L373.592 513.826C378.691 516.704 384.645 520.848 390.122 522.781C400.769 517.943 411.742 514.809 422.856 511.309C428.461 509.545 436.92 505.572 442.708 506.874L443.081 506.798C445.856 507.466 448.428 509.011 450.991 510.248L462.386 515.609C465.67 519.654 466.896 525.917 468.458 530.861L475.934 554.952C475.004 559.289 475.464 564.245 475.442 568.703L475.321 594.916L474.94 665.442L474.942 680.331C474.943 682.619 474.644 685.313 475.197 687.51L493.052 687.504L492.966 687.836L475.149 687.967L474.961 711.066L346.948 711.021L346.916 861.994L333.185 861.887C328.137 861.823 322.63 862.201 317.674 861.241L315.75 861.629C315.629 862.713 315.501 863.754 315.526 864.847C309.851 866.281 303.569 867.582 298.317 870.207L298.258 876.098L267.834 875.959L267.664 901.013L122.955 901.114L121.86 900.25L121.939 877.177L122.069 866.132L99.3836 866.238L99.4804 822.016L119.65 822.146L119.58 792.95L149.523 793.016L149.514 763.995L183.011 764.475L183.038 739.315L226.05 739.533L225.973 484.132L252.89 460.497C255.909 457.994 258.796 454.438 262.376 452.872Z"/>
	<path fill="#3A6BA8" transform="scale(1.13281 1.13281)" d="M298.317 870.207L297.991 845.006L317.812 845.001C317.974 849.736 318.743 856.649 317.674 861.241L315.75 861.629C315.629 862.713 315.501 863.754 315.526 864.847C309.851 866.281 303.569 867.582 298.317 870.207Z"/>
	<path fill="#E9AB5E" transform="scale(1.13281 1.13281)" d="M274.56 689.571L274.946 744.597L246.985 744.507L246.768 690.107L246.714 689.647L274.56 689.571Z"/>
	<path fill="#FBD193" transform="scale(1.13281 1.13281)" d="M274.56 689.571L300.91 689.534L301 705.506L314.764 705.087L314.923 710.971L314.855 728.146L314.608 728.292L314.147 728.332L300.978 728.457L301.001 744.638L274.946 744.597L274.56 689.571Z"/>
	<path fill="#FDE2AA" transform="scale(1.13281 1.13281)" d="M301 705.506L314.764 705.087L314.923 710.971L314.855 728.146L314.608 728.292C310.318 727.495 305.301 727.998 300.919 728.004L301 705.506Z"/>
	<path fill="#387837" transform="scale(1.13281 1.13281)" d="M273.462 634.871L274.099 635.049L300.737 636.261C300.273 640.513 300.498 644.929 300.493 649.206L300.489 669.671L300.508 682.531C300.515 684.833 300.279 687.31 300.91 689.534L274.56 689.571L246.714 689.647C245.805 684.261 246.446 677.696 246.448 672.196L246.625 634.991L273.462 634.871Z"/>
	<path fill="#599440" transform="scale(1.13281 1.13281)" d="M274.099 635.049L300.737 636.261C300.273 640.513 300.498 644.929 300.493 649.206L300.489 669.671L300.508 682.531C300.515 684.833 300.279 687.31 300.91 689.534L274.56 689.571L274.099 635.049Z"/>
	<path fill="#387837" transform="scale(1.13281 1.13281)" d="M246.625 634.991L247.948 630.5C252.691 616.336 259.442 602.675 264.926 588.767L281.415 547.486C284.142 540.742 286.503 533.487 289.99 527.111C292.159 523.145 294.737 519.828 298.856 517.744C300.573 517.834 302.174 517.821 303.888 517.683C305.706 517.537 306.963 517.747 308.682 518.289L309.33 518.489C315.178 520.387 319.949 525.331 323.189 530.374C319.508 541.665 313.721 552.104 308.406 562.684L288.526 602C285.628 607.674 273.321 629.571 273.462 634.871L246.625 634.991Z"/>
	<path fill="#132379" transform="scale(1.13281 1.13281)" d="M314.923 710.971L346.948 711.021L346.916 861.994L333.185 861.887C328.137 861.823 322.63 862.201 317.674 861.241C318.743 856.649 317.974 849.736 317.812 845.001C316.897 835.475 317.601 825.285 317.593 815.663L317.715 756.252C317.753 751.494 318.791 731.382 317.469 729.117C316.595 729.041 316.091 729.015 315.336 728.513L314.855 728.146L314.923 710.971Z"/>
	<path fill="#71B36A" transform="scale(1.13281 1.13281)" d="M340.63 495.34L373.592 513.826C378.691 516.704 384.645 520.848 390.122 522.781C400.769 517.943 411.742 514.809 422.856 511.309C428.461 509.545 436.92 505.572 442.708 506.874L443.081 506.798C445.856 507.466 448.428 509.011 450.991 510.248L462.386 515.609C465.67 519.654 466.896 525.917 468.458 530.861L475.934 554.952C475.004 559.289 475.464 564.245 475.442 568.703L475.321 594.916L474.94 665.442L474.942 680.331C474.943 682.619 474.644 685.313 475.197 687.51L493.052 687.504L492.966 687.836L475.149 687.967L474.961 711.066L346.948 711.021L314.923 710.971L314.764 705.087L301 705.506L300.91 689.534C300.279 687.31 300.515 684.833 300.508 682.531L300.489 669.671L300.493 649.206C300.498 644.929 300.273 640.513 300.737 636.261L274.099 635.049L273.462 634.871C273.321 629.571 285.628 607.674 288.526 602L308.406 562.684C313.721 552.104 319.508 541.665 323.189 530.374C319.949 525.331 315.178 520.387 309.33 518.489L308.682 518.289C306.963 517.747 305.706 517.537 303.888 517.683C302.174 517.821 300.573 517.834 298.856 517.744C302.794 515.213 307.255 514.174 311.896 514.286C314.01 513.174 316.259 512.323 318.329 511.132C326.062 506.682 333.408 500.629 340.63 495.34Z"/>
	<path fill="#FEFDFD" transform="scale(1.13281 1.13281)" d="M411.648 591.363C419.29 593.989 437.197 605.526 440.91 612.5L440.57 613.336C433.488 613.88 426.162 613.631 419.05 613.721C417.402 613.742 413.958 614.226 412.5 613.803C412.133 613.696 411.886 613.346 411.579 613.118L411.648 591.363Z"/>
	<path fill="#FDE2AA" transform="scale(1.13281 1.13281)" d="M411.579 613.118C411.886 613.346 412.133 613.696 412.5 613.803C413.958 614.226 417.402 613.742 419.05 613.721C426.162 613.631 433.488 613.88 440.57 613.336C432.098 624.117 423.166 636.424 411.868 644.391L411.853 624.584C411.85 620.901 412.114 617.022 411.487 613.387L411.579 613.118Z"/>
	<path fill="#EBC13F" transform="scale(1.13281 1.13281)" d="M380.596 613.113L411.648 591.363L411.579 613.118L411.487 613.387C412.114 617.022 411.85 620.901 411.853 624.584L411.868 644.391C410.922 644.233 410.174 644.023 409.319 643.568C406.344 641.982 403.744 639.572 401.227 637.361C395.391 632.233 389.943 626.666 385.249 620.463C383.539 618.204 381.507 615.818 380.596 613.113Z"/>
	<path fill="#387837" transform="scale(1.13281 1.13281)" d="M300.737 636.261L326.769 595.314C332.43 586.239 337.495 576.54 343.551 567.75C344.436 566.466 345.461 564.713 346.904 564.148L346.948 711.021L314.923 710.971L314.764 705.087L301 705.506L300.91 689.534C300.279 687.31 300.515 684.833 300.508 682.531L300.489 669.671L300.493 649.206C300.498 644.929 300.273 640.513 300.737 636.261Z"/>
	<path fill="#D6621A" transform="scale(1.13281 1.13281)" d="M340.63 495.34L373.592 513.826C378.691 516.704 384.645 520.848 390.122 522.781C400.769 517.943 411.742 514.809 422.856 511.309C428.461 509.545 436.92 505.572 442.708 506.874L443.081 506.798C445.856 507.466 448.428 509.011 450.991 510.248L462.386 515.609L410.331 576.169L361.555 545.742C353.547 540.895 345.402 535.188 336.94 531.236C334.079 527.991 331.217 524.388 327.818 521.705C323.073 517.959 317.55 516.178 311.896 514.286C314.01 513.174 316.259 512.323 318.329 511.132C326.062 506.682 333.408 500.629 340.63 495.34Z"/>
	<path fill="#FEFDFD" transform="scale(1.13281 1.13281)" d="M409.429 544.084L409.75 539.821C411.171 539.998 412.12 540.838 413.245 541.651L409.593 551.291L409.429 544.084Z"/>
	<path fill="#FDE2AA" transform="scale(1.13281 1.13281)" d="M390.122 522.781C400.769 517.943 411.742 514.809 422.856 511.309C428.461 509.545 436.92 505.572 442.708 506.874L422.731 529.886C419.563 533.597 415.616 537.396 413.245 541.651C412.12 540.838 411.171 539.998 409.75 539.821L409.429 544.084L408.803 538.223C403.586 531.829 396.919 527.308 390.122 522.781Z"/>
</svg>
